<svg enable-background="new 0 0 32.362 13.617" height="13.617" viewBox="0 0 32.362 13.617" width="32.362" xmlns="http://www.w3.org/2000/svg"><path d="m5.398 3.761c.061.527-.025 1.215.11 1.607-.098.098.025.294-.061.393.086.11.037.27.037.405-.037 1.042-.049 2.502-.602 3.422-.208.209-1.411.504-2.061.504-.81-.037-1.84-.209-2.27-.602-.244-.246-.539-.969-.551-1.865 0-.257 0-1.006.061-1.227.037-.27.981-.098 1.092-.061.037.246-.221 1.497-.184 1.755.037.344.196.49.38.797.196.332.675.43.908.467.466.06 1.178-.307 1.251-.786.012-.099.012-.233.012-.344 0-.724 0-1.153-.037-1.926-.037-.711-.037-1.705 0-2.27.037-.332 0-.724.012-1.104-.281-.036-1.741-.061-2.035-.122-.111-.147-.27-.344-.172-.491.712-.196 2.724-.037 3.582-.073.454-.012.773.11.675.65-.123.257-.012.601-.147.871z"/><path d="m19.739 0c-.711 2.037-2.404 3.116-3.312 4.957.663.736 1.398-.393 2.896 0-1.57 3.508-4.687 5.497-6.6 8.661-.908-1.545 1.448-3.508 1.644-5.373-.196-.908-2.037-.146-2.896-.417.932-2.626 2.183-4.982 2.895-7.828z"/><path d="m30.634 3.258c.135.196.393.957.552 1.178.037.429.185.957.282 1.509.049.246.049.479.11.712.099.38.222.662.356.994.049.171.502 2.037.416 2.27-.601.367-1.165.146-1.766.109-.037-.086-.111-.109-.16-.172-.135-.907-.576-2.588-.81-3.422-.785.147-1.423.074-2.294.037-.196.908-.503 2.356-.932 3.177-.099.196-.908.294-1.007.099.294-1.547 1.092-3.767 1.583-4.944.098-.246.11-.233.209-.491.33-.834.27-1.656 1.189-1.988.221-.098 1.35-.037 1.619-.037zm-2.49.773c-.074.343-.074.331-.209.577-.086.159-.196.331-.258.491-.037.086-.024.184-.061.27-.086.233-.16.368-.16.625.639-.098 1.239.049 1.988-.11-.16-.884-.59-1.804-.896-2.835-.319.16-.172.675-.404.982z"/></svg>